# Exported from ProBuilder
# http://www.procore3d.com/probuilder
# 11/17/2018 3:00:48 PM

mtllib ./Hexagon.mtl
o Hexagon

g Cylinder
v -0.5 0 0
v -0.5 1 0
v -0.25 0 0.4330127
v -0.25 1 0.4330127
v -0.25 0 0.4330127
v -0.25 1 0.4330127
v 0.25 0 0.4330127
v 0.25 1 0.4330127
v 0.25 0 0.4330127
v 0.25 1 0.4330127
v 0.5 0 -4.371139E-08
v 0.5 1 -4.371139E-08
v 0.5 0 -4.371139E-08
v 0.5 1 -4.371139E-08
v 0.25 0 -0.4330127
v 0.25 1 -0.4330127
v 0.25 0 -0.4330127
v 0.25 1 -0.4330127
v -0.25 0 -0.4330127
v -0.25 1 -0.4330127
v -0.25 0 -0.4330127
v -0.25 1 -0.4330127
v -0.5 0 0
v -0.5 1 0
v -0.25 0 0.4330127
v 0 0 0
v -0.5 0 0
v 0.25 0 0.4330127
v 0.5 0 -4.371139E-08
v 0 0 0
v 0.25 0 0.4330127
v 0.25 0 -0.4330127
v 0.5 0 -4.371139E-08
v -0.25 0 -0.4330127
v -0.5 1 0
v 0 1 0
v -0.25 1 0.4330127
v 0.25 1 0.4330127
v 0.5 1 -4.371139E-08
v 0.25 1 -0.4330127
v -0.25 1 -0.4330127

vn -0.8660254 0 0.5
vn -0.8660254 0 0.5
vn -0.8660254 0 0.5
vn -0.8660254 0 0.5
vn 5.960464E-08 0 1
vn 5.960464E-08 0 1
vn 5.960464E-08 0 1
vn 5.960464E-08 0 1
vn 0.8660254 0 0.4999999
vn 0.8660254 0 0.4999999
vn 0.8660254 0 0.4999999
vn 0.8660254 0 0.4999999
vn 0.8660254 0 -0.5000001
vn 0.8660254 0 -0.5000001
vn 0.8660254 0 -0.5000001
vn 0.8660254 0 -0.5000001
vn 0 0 -1
vn 0 0 -1
vn 0 0 -1
vn 0 0 -1
vn -0.8660253 0 -0.5000001
vn -0.8660253 0 -0.5000001
vn -0.8660253 0 -0.5000001
vn -0.8660253 0 -0.5000001
vn 0 -1 0
vn 0 -1 0
vn 0 -1 0
vn 0 -1 0
vn 0 -0.9999999 0
vn 0 -0.9999999 0
vn 0 -0.9999999 0
vn 0 -1 0
vn 0 -1 0
vn 0 -1 0
vn 0 1 0
vn 0 1 0
vn 0 1 0
vn 0 1 0
vn 0 1 0
vn 0 1 0
vn 0 1 0

vt -0.25 0
vt -0.25 1
vt 0.2500001 0
vt 0.2500001 1
vt -0.25 0
vt -0.25 1
vt 0.25 0
vt 0.25 1
vt -0.25 0
vt -0.25 1
vt 0.25 0
vt 0.25 1
vt -0.25 0
vt -0.25 1
vt 0.25 0
vt 0.25 1
vt -0.25 0
vt -0.25 1
vt 0.25 0
vt 0.25 1
vt -0.25 0
vt -0.25 1
vt 0.2500001 0
vt 0.2500001 1
vt -0.25 0.4330127
vt 0 0
vt -0.5 0
vt 0.25 0.4330127
vt 0.5 -4.371139E-08
vt 0 0
vt 0.25 0.4330127
vt 0.25 -0.4330127
vt 0.5 -4.371139E-08
vt -0.25 -0.4330127
vt 0.5 0
vt 0 0
vt 0.25 0.4330127
vt -0.25 0.4330127
vt -0.5 -4.371139E-08
vt -0.25 -0.4330127
vt 0.25 -0.4330127

g Cylinder
usemtl Map_Part
f 3/3/3 2/2/2 1/1/1
f 3/3/3 4/4/4 2/2/2
f 7/7/7 6/6/6 5/5/5
f 7/7/7 8/8/8 6/6/6
f 11/11/11 10/10/10 9/9/9
f 11/11/11 12/12/12 10/10/10
f 15/15/15 14/14/14 13/13/13
f 15/15/15 16/16/16 14/14/14
f 19/19/19 18/18/18 17/17/17
f 19/19/19 20/20/20 18/18/18
f 23/23/23 22/22/22 21/21/21
f 23/23/23 24/24/24 22/22/22
f 27/27/27 26/26/26 25/25/25
f 25/25/25 26/26/26 28/28/28
f 31/31/31 30/30/30 29/29/29
f 33/33/33 26/26/26 32/32/32
f 32/32/32 26/26/26 34/34/34
f 34/34/34 26/26/26 27/27/27
f 37/37/37 36/36/36 35/35/35
f 38/38/38 36/36/36 37/37/37
f 39/39/39 36/36/36 38/38/38
f 40/40/40 36/36/36 39/39/39
f 41/41/41 36/36/36 40/40/40
f 35/35/35 36/36/36 41/41/41

